<?xml version="1.0" encoding="utf-8"?>
<!-- Generator: Adobe Illustrator 27.2.0, SVG Export Plug-In . SVG Version: 6.00 Build 0)  -->
<svg version="1.1" id="Calque_1" xmlns="http://www.w3.org/2000/svg" xmlns:xlink="http://www.w3.org/1999/xlink" x="0px" y="0px"
	 viewBox="0 0 125 40" style="enable-background:new 0 0 125 40;" xml:space="preserve">
<style type="text/css">
	.st0{fill:url(#SVGID_1_);}
	.st1{fill:url(#SVGID_00000096745982318892379000000016400595712384784015_);}
	.st2{fill:#FFFFFF;}
</style>
<g>
	<linearGradient id="SVGID_1_" gradientUnits="userSpaceOnUse" x1="0.6874" y1="20" x2="124.3126" y2="20">
		<stop  offset="0" style="stop-color:#AEC90B"/>
		<stop  offset="1" style="stop-color:#008FD6"/>
	</linearGradient>
	<path class="st0" d="M116.97,7.49h1.14c0.13,0,0.23-0.1,0.23-0.23V0.23c0-0.13-0.1-0.23-0.23-0.23h-1.14
		c-0.13,0-0.23,0.1-0.23,0.23v7.03C116.74,7.39,116.84,7.49,116.97,7.49z M124.02,0h-0.33h-0.67h-3.8c-0.13,0-0.23,0.1-0.23,0.23
		v1.14c0,0.13,0.1,0.23,0.23,0.23h3.11l-1.68,5.6c0,0.16,0.13,0.29,0.29,0.29h1.01c0.16,0,0.29-0.13,0.29-0.29l2.07-6.9
		C124.31,0.13,124.18,0,124.02,0z M102.41,2.97c-8.84,0-16.02,7.19-16.02,16.02c0,8.84,7.19,16.02,16.02,16.02
		s16.02-7.19,16.02-16.02C118.43,10.16,111.24,2.97,102.41,2.97z M102.41,30.37c-6.27,0-11.37-5.1-11.37-11.37
		c0-6.27,5.1-11.37,11.37-11.37c6.27,0,11.37,5.1,11.37,11.37C113.78,25.26,108.68,30.37,102.41,30.37z M15.84,9.4H1.2
		c-0.29,0-0.52,0.23-0.52,0.52v2.59c0,0.29,0.23,0.52,0.52,0.52h5.19v15.35c0,0.29,0.23,0.52,0.52,0.52h3.18
		c0.29,0,0.52-0.23,0.52-0.52V13.02h5.24c0.29,0,0.52-0.23,0.52-0.52V9.92C16.36,9.63,16.13,9.4,15.84,9.4z M72.24,5.96
		c-0.42-0.7-1.18-1.13-2-1.13c0,0-0.01,0-0.01,0c-0.82,0-1.58,0.44-2,1.15l-6.03,10.3l-3.62-4.92c-0.46-0.62-1.19-0.98-1.96-0.95
		c-0.77,0.03-1.48,0.44-1.88,1.1L47,23.95L41.62,9.73c-0.08-0.2-0.27-0.33-0.48-0.33h-2.88c-0.21,0-0.41,0.13-0.48,0.33l-6.93,18.35
		v-2.28c0-0.29-0.23-0.52-0.52-0.52h-8.34v-4.64h7.06c0.29,0,0.52-0.23,0.52-0.52v-2.53c0-0.29-0.23-0.52-0.52-0.52h-7.06v-4.06
		h8.25c0.29,0,0.52-0.23,0.52-0.52V9.92c0-0.29-0.23-0.52-0.52-0.52H18.26c-0.29,0-0.52,0.23-0.52,0.52v18.45
		c0,0.29,0.23,0.52,0.52,0.52h12.06c0.22,0,0.41-0.14,0.48-0.33c0.01,0.04,0.03,0.08,0.06,0.11c0.1,0.14,0.26,0.22,0.43,0.22h3.33
		c0.22,0,0.42-0.14,0.49-0.35l1.37-3.95h6.41l1.39,3.95c0.07,0.21,0.27,0.35,0.49,0.35h3.27c0.8,0.03,1.6-0.36,2.05-1.09l6.79-10.92
		l3.68,5.01c0.46,0.63,1.21,0.98,1.99,0.94c0.78-0.04,1.49-0.47,1.89-1.15l5.83-9.95l16.2,27.15c0.44,0.73,1.21,1.13,2,1.13
		c0.41,0,0.82-0.11,1.19-0.33c1.1-0.66,1.46-2.08,0.81-3.19L72.24,5.96z M37.74,20.97l1.95-5.57l1.95,5.57H37.74z"/>
</g>
<g>
	
		<linearGradient id="SVGID_00000016038854158492769040000008032680774369065404_" gradientUnits="userSpaceOnUse" x1="0.6874" y1="20" x2="124.3126" y2="20">
		<stop  offset="0" style="stop-color:#AEC90B"/>
		<stop  offset="1" style="stop-color:#008FD6"/>
	</linearGradient>
	<path style="fill:url(#SVGID_00000016038854158492769040000008032680774369065404_);" d="M116.97,7.49h1.14
		c0.13,0,0.23-0.1,0.23-0.23V0.23c0-0.13-0.1-0.23-0.23-0.23h-1.14c-0.13,0-0.23,0.1-0.23,0.23v7.03
		C116.74,7.39,116.84,7.49,116.97,7.49z M124.02,0h-0.33h-0.67h-3.8c-0.13,0-0.23,0.1-0.23,0.23v1.14c0,0.13,0.1,0.23,0.23,0.23
		h3.11l-1.68,5.6c0,0.16,0.13,0.29,0.29,0.29h1.01c0.16,0,0.29-0.13,0.29-0.29l2.07-6.9C124.31,0.13,124.18,0,124.02,0z
		 M102.41,2.97c-8.84,0-16.02,7.19-16.02,16.02c0,8.84,7.19,16.02,16.02,16.02s16.02-7.19,16.02-16.02
		C118.43,10.16,111.24,2.97,102.41,2.97z M102.41,30.37c-6.27,0-11.37-5.1-11.37-11.37c0-6.27,5.1-11.37,11.37-11.37
		c6.27,0,11.37,5.1,11.37,11.37C113.78,25.26,108.68,30.37,102.41,30.37z M15.84,9.4H1.2c-0.29,0-0.52,0.23-0.52,0.52v2.59
		c0,0.29,0.23,0.52,0.52,0.52h5.19v15.35c0,0.29,0.23,0.52,0.52,0.52h3.18c0.29,0,0.52-0.23,0.52-0.52V13.02h5.24
		c0.29,0,0.52-0.23,0.52-0.52V9.92C16.36,9.63,16.13,9.4,15.84,9.4z M72.24,5.96c-0.42-0.7-1.18-1.13-2-1.13c0,0-0.01,0-0.01,0
		c-0.82,0-1.58,0.44-2,1.15l-6.03,10.3l-3.62-4.92c-0.46-0.62-1.19-0.98-1.96-0.95c-0.77,0.03-1.48,0.44-1.88,1.1L47,23.95
		L41.62,9.73c-0.08-0.2-0.27-0.33-0.48-0.33h-2.88c-0.21,0-0.41,0.13-0.48,0.33l-6.93,18.35v-2.28c0-0.29-0.23-0.52-0.52-0.52h-8.34
		v-4.64h7.06c0.29,0,0.52-0.23,0.52-0.52v-2.53c0-0.29-0.23-0.52-0.52-0.52h-7.06v-4.06h8.25c0.29,0,0.52-0.23,0.52-0.52V9.92
		c0-0.29-0.23-0.52-0.52-0.52H18.26c-0.29,0-0.52,0.23-0.52,0.52v18.45c0,0.29,0.23,0.52,0.52,0.52h12.06
		c0.22,0,0.41-0.14,0.48-0.33c0.01,0.04,0.03,0.08,0.06,0.11c0.1,0.14,0.26,0.22,0.43,0.22h3.33c0.22,0,0.42-0.14,0.49-0.35
		l1.37-3.95h6.41l1.39,3.95c0.07,0.21,0.27,0.35,0.49,0.35h3.27c0.8,0.03,1.6-0.36,2.05-1.09l6.79-10.92l3.68,5.01
		c0.46,0.63,1.21,0.98,1.99,0.94c0.78-0.04,1.49-0.47,1.89-1.15l5.83-9.95l16.2,27.15c0.44,0.73,1.21,1.13,2,1.13
		c0.41,0,0.82-0.11,1.19-0.33c1.1-0.66,1.46-2.08,0.81-3.19L72.24,5.96z M37.74,20.97l1.95-5.57l1.95,5.57H37.74z"/>
	<g>
		<path class="st2" d="M9.06,35.6H7.02v1.78h2.34v0.31H6.65v-4.36h2.7v0.31H7.02v1.65h2.04V35.6z M8.31,32.13h0.43l-0.69,0.84
			l-0.31,0L8.31,32.13z"/>
		<path class="st2" d="M11.91,37.19l0.98-2.75h0.37l-1.21,3.24h-0.29l-1.22-3.24h0.37L11.91,37.19z"/>
		<path class="st2" d="M16.77,37.69c-0.04-0.1-0.06-0.25-0.07-0.45c-0.13,0.16-0.29,0.29-0.48,0.38c-0.19,0.09-0.4,0.13-0.62,0.13
			c-0.31,0-0.56-0.09-0.76-0.26c-0.19-0.17-0.29-0.39-0.29-0.66c0-0.32,0.13-0.56,0.39-0.75c0.26-0.18,0.63-0.28,1.1-0.28h0.65
			v-0.37c0-0.23-0.07-0.41-0.21-0.55c-0.14-0.13-0.35-0.2-0.62-0.2c-0.25,0-0.46,0.06-0.62,0.19s-0.25,0.28-0.25,0.46l-0.36,0
			c0-0.26,0.12-0.48,0.36-0.67c0.24-0.19,0.53-0.28,0.88-0.28c0.36,0,0.65,0.09,0.85,0.27c0.21,0.18,0.32,0.43,0.32,0.76v1.53
			c0,0.31,0.03,0.55,0.1,0.7v0.04H16.77z M15.64,37.43c0.24,0,0.45-0.06,0.64-0.17c0.19-0.12,0.33-0.27,0.41-0.46v-0.71h-0.64
			c-0.36,0-0.64,0.07-0.84,0.2s-0.3,0.3-0.3,0.52c0,0.18,0.07,0.33,0.2,0.45C15.25,37.37,15.42,37.43,15.64,37.43z"/>
		<path class="st2" d="M20.86,36.86c0-0.18-0.07-0.32-0.21-0.43c-0.14-0.11-0.36-0.19-0.65-0.25c-0.29-0.06-0.51-0.13-0.67-0.21
			s-0.28-0.17-0.35-0.29c-0.08-0.11-0.12-0.25-0.12-0.41c0-0.25,0.11-0.47,0.32-0.63c0.21-0.17,0.49-0.25,0.82-0.25
			c0.36,0,0.65,0.09,0.87,0.27c0.22,0.18,0.33,0.41,0.33,0.7h-0.36c0-0.19-0.08-0.35-0.24-0.47s-0.36-0.19-0.6-0.19
			c-0.24,0-0.42,0.05-0.57,0.16c-0.14,0.1-0.21,0.24-0.21,0.41c0,0.16,0.06,0.29,0.18,0.38s0.34,0.17,0.65,0.24
			c0.31,0.07,0.55,0.15,0.71,0.24c0.16,0.08,0.27,0.18,0.35,0.3c0.08,0.12,0.11,0.26,0.11,0.43c0,0.27-0.11,0.49-0.33,0.66
			c-0.22,0.16-0.51,0.25-0.86,0.25c-0.38,0-0.68-0.09-0.92-0.27c-0.23-0.18-0.35-0.41-0.35-0.69h0.36c0.01,0.21,0.1,0.37,0.26,0.49
			c0.16,0.12,0.38,0.18,0.65,0.18c0.25,0,0.45-0.05,0.6-0.17C20.79,37.17,20.86,37.03,20.86,36.86z"/>
		<path class="st2" d="M22.93,33.51c0-0.07,0.02-0.12,0.07-0.17c0.04-0.05,0.1-0.07,0.18-0.07s0.14,0.02,0.18,0.07
			c0.04,0.05,0.07,0.1,0.07,0.17c0,0.07-0.02,0.12-0.07,0.17s-0.11,0.07-0.18,0.07s-0.14-0.02-0.18-0.07S22.93,33.58,22.93,33.51z
			 M23.35,37.69h-0.36v-3.24h0.36V37.69z"/>
		<path class="st2" d="M25.04,36.02c0-0.31,0.06-0.59,0.18-0.84c0.12-0.25,0.29-0.44,0.51-0.58s0.47-0.21,0.75-0.21
			c0.43,0,0.78,0.15,1.05,0.45c0.27,0.3,0.4,0.7,0.4,1.2v0.08c0,0.31-0.06,0.59-0.18,0.85c-0.12,0.25-0.29,0.44-0.51,0.58
			c-0.22,0.14-0.47,0.2-0.75,0.2c-0.43,0-0.78-0.15-1.05-0.45c-0.27-0.3-0.4-0.7-0.4-1.2V36.02z M25.4,36.12
			c0,0.39,0.1,0.71,0.3,0.95c0.2,0.25,0.46,0.37,0.79,0.37c0.32,0,0.58-0.12,0.79-0.37c0.2-0.25,0.3-0.58,0.3-0.98v-0.07
			c0-0.25-0.05-0.47-0.14-0.68c-0.09-0.21-0.22-0.37-0.39-0.48c-0.17-0.11-0.35-0.17-0.57-0.17c-0.32,0-0.58,0.12-0.78,0.38
			c-0.2,0.25-0.3,0.58-0.3,0.98V36.12z"/>
		<path class="st2" d="M29.94,34.45L29.95,35c0.12-0.2,0.27-0.35,0.46-0.46c0.18-0.1,0.38-0.16,0.6-0.16c0.35,0,0.61,0.1,0.78,0.29
			c0.17,0.2,0.26,0.49,0.26,0.88v2.12h-0.36v-2.13c0-0.29-0.06-0.5-0.18-0.65c-0.12-0.14-0.31-0.21-0.58-0.21
			c-0.22,0-0.42,0.07-0.59,0.21c-0.17,0.14-0.3,0.33-0.38,0.56v2.22h-0.36v-3.24H29.94z"/>
		<path class="st2" d="M37.04,35.31c-0.17-0.21-0.3-0.4-0.38-0.56c-0.08-0.16-0.12-0.33-0.12-0.49c0-0.3,0.09-0.55,0.27-0.72
			c0.18-0.18,0.42-0.27,0.73-0.27c0.28,0,0.5,0.08,0.67,0.24c0.17,0.16,0.26,0.37,0.26,0.61c0,0.29-0.17,0.57-0.5,0.85l-0.48,0.37
			l1.2,1.39c0.18-0.29,0.27-0.62,0.27-1h0.33c0,0.49-0.13,0.91-0.38,1.25l0.6,0.69h-0.43l-0.38-0.44c-0.16,0.16-0.34,0.28-0.55,0.37
			c-0.21,0.09-0.42,0.13-0.65,0.13c-0.42,0-0.74-0.11-0.99-0.32c-0.24-0.21-0.37-0.5-0.37-0.85c0-0.21,0.06-0.41,0.19-0.6
			c0.12-0.19,0.34-0.4,0.66-0.64L37.04,35.31z M37.5,37.44c0.18,0,0.36-0.04,0.53-0.12c0.17-0.08,0.32-0.19,0.46-0.33l-1.22-1.41
			l-0.04-0.04l-0.14,0.11c-0.39,0.32-0.59,0.63-0.59,0.93c0,0.26,0.09,0.47,0.27,0.63C36.95,37.36,37.2,37.44,37.5,37.44z
			 M36.9,34.25c0,0.24,0.13,0.53,0.4,0.86l0.39-0.3c0.13-0.09,0.23-0.19,0.31-0.3c0.08-0.11,0.12-0.24,0.12-0.39
			c0-0.16-0.05-0.29-0.16-0.39c-0.11-0.1-0.25-0.16-0.43-0.16c-0.2,0-0.35,0.06-0.47,0.19C36.95,33.89,36.9,34.05,36.9,34.25z"/>
		<path class="st2" d="M45.33,36.86c0-0.18-0.07-0.32-0.21-0.43c-0.14-0.11-0.36-0.19-0.65-0.25c-0.29-0.06-0.51-0.13-0.67-0.21
			s-0.28-0.17-0.35-0.29c-0.08-0.11-0.12-0.25-0.12-0.41c0-0.25,0.11-0.47,0.32-0.63c0.21-0.17,0.49-0.25,0.82-0.25
			c0.36,0,0.65,0.09,0.87,0.27c0.22,0.18,0.33,0.41,0.33,0.7h-0.36c0-0.19-0.08-0.35-0.24-0.47s-0.36-0.19-0.6-0.19
			c-0.24,0-0.42,0.05-0.57,0.16c-0.14,0.1-0.21,0.24-0.21,0.41c0,0.16,0.06,0.29,0.18,0.38s0.34,0.17,0.65,0.24
			c0.31,0.07,0.55,0.15,0.71,0.24c0.16,0.08,0.27,0.18,0.35,0.3c0.08,0.12,0.11,0.26,0.11,0.43c0,0.27-0.11,0.49-0.33,0.66
			c-0.22,0.16-0.51,0.25-0.86,0.25c-0.38,0-0.68-0.09-0.92-0.27c-0.23-0.18-0.35-0.41-0.35-0.69h0.36c0.01,0.21,0.1,0.37,0.26,0.49
			c0.16,0.12,0.38,0.18,0.65,0.18c0.25,0,0.45-0.05,0.6-0.17C45.26,37.17,45.33,37.03,45.33,36.86z"/>
		<path class="st2" d="M47.22,36.02c0-0.31,0.06-0.59,0.18-0.84c0.12-0.25,0.29-0.44,0.51-0.58s0.47-0.21,0.75-0.21
			c0.43,0,0.78,0.15,1.05,0.45c0.27,0.3,0.4,0.7,0.4,1.2v0.08c0,0.31-0.06,0.59-0.18,0.85c-0.12,0.25-0.29,0.44-0.51,0.58
			c-0.22,0.14-0.47,0.2-0.75,0.2c-0.43,0-0.78-0.15-1.05-0.45c-0.27-0.3-0.4-0.7-0.4-1.2V36.02z M47.58,36.12
			c0,0.39,0.1,0.71,0.3,0.95c0.2,0.25,0.46,0.37,0.79,0.37c0.32,0,0.58-0.12,0.79-0.37c0.2-0.25,0.3-0.58,0.3-0.98v-0.07
			c0-0.25-0.05-0.47-0.14-0.68c-0.09-0.21-0.22-0.37-0.39-0.48c-0.17-0.11-0.35-0.17-0.57-0.17c-0.32,0-0.58,0.12-0.78,0.38
			c-0.2,0.25-0.3,0.58-0.3,0.98V36.12z"/>
		<path class="st2" d="M52.17,37.69h-0.36v-4.6h0.36V37.69z"/>
		<path class="st2" d="M54.04,33.51c0-0.07,0.02-0.12,0.07-0.17c0.04-0.05,0.1-0.07,0.18-0.07s0.14,0.02,0.18,0.07
			c0.04,0.05,0.07,0.1,0.07,0.17c0,0.07-0.02,0.12-0.07,0.17s-0.11,0.07-0.18,0.07s-0.14-0.02-0.18-0.07S54.04,33.58,54.04,33.51z
			 M54.47,37.69h-0.36v-3.24h0.36V37.69z"/>
		<path class="st2" d="M56.21,36.04c0-0.5,0.11-0.9,0.34-1.2c0.22-0.3,0.53-0.45,0.91-0.45c0.44,0,0.77,0.17,1,0.52v-1.82h0.36v4.6
			h-0.34l-0.01-0.43c-0.23,0.33-0.57,0.49-1.01,0.49c-0.37,0-0.67-0.15-0.9-0.45s-0.34-0.71-0.34-1.22V36.04z M56.58,36.1
			c0,0.41,0.08,0.74,0.25,0.98c0.17,0.24,0.4,0.36,0.7,0.36c0.44,0,0.75-0.2,0.94-0.58v-1.52c-0.19-0.42-0.5-0.63-0.93-0.63
			c-0.3,0-0.54,0.12-0.7,0.35S56.58,35.64,56.58,36.1z"/>
		<path class="st2" d="M62.73,37.69c-0.04-0.1-0.06-0.25-0.07-0.45c-0.13,0.16-0.29,0.29-0.48,0.38c-0.19,0.09-0.4,0.13-0.62,0.13
			c-0.31,0-0.56-0.09-0.76-0.26c-0.19-0.17-0.29-0.39-0.29-0.66c0-0.32,0.13-0.56,0.39-0.75c0.26-0.18,0.63-0.28,1.1-0.28h0.65
			v-0.37c0-0.23-0.07-0.41-0.21-0.55c-0.14-0.13-0.35-0.2-0.62-0.2c-0.25,0-0.46,0.06-0.62,0.19s-0.25,0.28-0.25,0.46l-0.36,0
			c0-0.26,0.12-0.48,0.36-0.67c0.24-0.19,0.53-0.28,0.88-0.28c0.36,0,0.65,0.09,0.85,0.27c0.21,0.18,0.32,0.43,0.32,0.76v1.53
			c0,0.31,0.03,0.55,0.1,0.7v0.04H62.73z M61.6,37.43c0.24,0,0.45-0.06,0.64-0.17c0.19-0.12,0.33-0.27,0.41-0.46v-0.71h-0.64
			c-0.36,0-0.64,0.07-0.84,0.2s-0.3,0.3-0.3,0.52c0,0.18,0.07,0.33,0.2,0.45C61.21,37.37,61.39,37.43,61.6,37.43z"/>
		<path class="st2" d="M66.38,34.75c-0.08-0.01-0.16-0.02-0.24-0.02c-0.22,0-0.41,0.06-0.57,0.19c-0.15,0.12-0.26,0.31-0.33,0.54
			v2.22h-0.36v-3.24h0.35l0.01,0.52c0.19-0.38,0.49-0.58,0.91-0.58c0.1,0,0.18,0.01,0.24,0.04L66.38,34.75z"/>
		<path class="st2" d="M67.85,33.51c0-0.07,0.02-0.12,0.07-0.17c0.04-0.05,0.1-0.07,0.18-0.07s0.14,0.02,0.18,0.07
			c0.04,0.05,0.07,0.1,0.07,0.17c0,0.07-0.02,0.12-0.07,0.17s-0.11,0.07-0.18,0.07s-0.14-0.02-0.18-0.07S67.85,33.58,67.85,33.51z
			 M68.27,37.69h-0.36v-3.24h0.36V37.69z"/>
		<path class="st2" d="M70.72,33.62v0.83h0.67v0.29h-0.67v2.16c0,0.18,0.03,0.31,0.1,0.4s0.17,0.13,0.32,0.13
			c0.06,0,0.16-0.01,0.29-0.03l0.01,0.29c-0.09,0.03-0.22,0.05-0.38,0.05c-0.25,0-0.42-0.07-0.54-0.21s-0.17-0.35-0.17-0.63v-2.16
			h-0.6v-0.29h0.6v-0.83H70.72z"/>
		<path class="st2" d="M74.31,37.74c-0.28,0-0.52-0.07-0.75-0.2c-0.22-0.14-0.4-0.33-0.52-0.57c-0.12-0.24-0.19-0.51-0.19-0.82
			v-0.13c0-0.31,0.06-0.59,0.18-0.84c0.12-0.25,0.29-0.45,0.5-0.59c0.22-0.14,0.45-0.21,0.7-0.21c0.39,0,0.71,0.13,0.94,0.4
			c0.23,0.27,0.35,0.64,0.35,1.1v0.2h-2.31v0.07c0,0.37,0.11,0.67,0.32,0.92c0.21,0.25,0.48,0.37,0.79,0.37
			c0.19,0,0.36-0.04,0.51-0.11c0.15-0.07,0.28-0.18,0.4-0.33l0.22,0.17C75.19,37.55,74.81,37.74,74.31,37.74z M74.24,34.69
			c-0.27,0-0.5,0.1-0.68,0.3s-0.3,0.46-0.34,0.8h1.94v-0.04c-0.01-0.31-0.1-0.57-0.27-0.76S74.51,34.69,74.24,34.69z M74.64,33.09
			h0.43l-0.69,0.84l-0.31,0L74.64,33.09z"/>
	</g>
</g>
</svg>
